<svg width="21" height="22" viewBox="0 0 21 22" fill="none" xmlns="http://www.w3.org/2000/svg">
<path d="M20.8103 0.988281V3.41174H19.9064C16.852 3.41174 13.9548 4.57326 11.7474 6.68451L10.0729 4.9335C12.7343 2.38996 16.2254 0.988281 19.9086 0.988281H20.8125H20.8103ZM14.2779 10.1319C15.9525 8.50974 18.2821 7.57966 20.8103 7.57966V5.1562C17.6576 5.1562 14.7145 6.33518 12.5924 8.39185L14.2779 10.1319ZM13.9417 16.3565L15.9394 16.6665C15.9394 13.9833 18.1249 11.7978 20.8103 11.7978V9.37433C16.7909 9.37433 13.9417 12.3349 13.9417 16.3565Z" fill="url(#paint0_linear_3808_17546)"/>
<path d="M15.993 21.7667H13.5695L13.528 15.2278C13.528 8.70842 8.23135 3.41174 1.71857 3.41174H0.814683V0.988281H1.71857C9.56535 0.988281 15.9515 7.37225 15.9515 15.2212L15.993 21.7667ZM0.814683 5.1562V7.57966C5.66816 7.57966 9.53696 10.9419 9.53696 15.0618V21.7667H11.8927L11.9604 15.0749C11.9604 9.60576 7.00434 5.1562 0.814683 5.1562ZM0.814683 9.37433V11.7978C3.49796 11.7978 5.68562 13.9811 5.68562 16.6753L5.72711 21.7667H8.1069V16.6665C8.1069 12.6471 4.83414 9.37433 0.8125 9.37433H0.814683Z" fill="url(#paint1_linear_3808_17546)"/>
<defs>
<linearGradient id="paint0_linear_3808_17546" x1="4.47852" y1="-13.2875" x2="35.8317" y2="-9.58202" gradientUnits="userSpaceOnUse">
<stop stop-color="#9CE2D8"/>
<stop offset="0.55" stop-color="#0364C1"/>
<stop offset="0.79" stop-color="#F175BE"/>
<stop offset="1" stop-color="#E96C00"/>
</linearGradient>
<linearGradient id="paint1_linear_3808_17546" x1="4.47852" y1="-13.2875" x2="35.8317" y2="-9.58202" gradientUnits="userSpaceOnUse">
<stop stop-color="#9CE2D8"/>
<stop offset="0.55" stop-color="#0364C1"/>
<stop offset="0.79" stop-color="#F175BE"/>
<stop offset="1" stop-color="#E96C00"/>
</linearGradient>
</defs>
</svg>
